<mxfile host="app.diagrams.net" agent="Mozilla/5.0 (Macintosh; Intel Mac OS X 10_15_7) AppleWebKit/537.36 (KHTML, like Gecko) Chrome/135.0.0.0 Safari/537.36" version="26.2.13">
  <diagram name="Page-1" id="MyH7erV6it8z_JTlrKve">
    <mxGraphModel dx="1473" dy="482" grid="1" gridSize="10" guides="1" tooltips="1" connect="1" arrows="1" fold="1" page="1" pageScale="1" pageWidth="850" pageHeight="1100" math="0" shadow="0">
      <root>
        <mxCell id="0" />
        <mxCell id="1" parent="0" />
        <mxCell id="spQjrwH2cCTAyUQUguDn-112" value="" style="rounded=0;whiteSpace=wrap;html=1;" vertex="1" parent="1">
          <mxGeometry x="3310" y="1210" width="1370" height="1250" as="geometry" />
        </mxCell>
        <mxCell id="spQjrwH2cCTAyUQUguDn-1" value="" style="rounded=0;whiteSpace=wrap;html=1;" vertex="1" parent="1">
          <mxGeometry x="1960" y="1210" width="1140" height="1340" as="geometry" />
        </mxCell>
        <mxCell id="spQjrwH2cCTAyUQUguDn-30" value="&lt;h1 style=&quot;margin-top: 0px;&quot;&gt;&lt;font style=&quot;font-size: 40px;&quot;&gt;IMPORTING WEB 2.0 DOMAINS&lt;/font&gt;&lt;/h1&gt;" style="text;html=1;whiteSpace=wrap;overflow=hidden;rounded=0;fontFamily=Courier New;fontStyle=1" vertex="1" parent="1">
          <mxGeometry x="2225.62" y="1260" width="613.75" height="60" as="geometry" />
        </mxCell>
        <mxCell id="spQjrwH2cCTAyUQUguDn-43" style="edgeStyle=orthogonalEdgeStyle;rounded=0;orthogonalLoop=1;jettySize=auto;html=1;" edge="1" parent="1" source="spQjrwH2cCTAyUQUguDn-33" target="spQjrwH2cCTAyUQUguDn-35">
          <mxGeometry relative="1" as="geometry" />
        </mxCell>
        <mxCell id="spQjrwH2cCTAyUQUguDn-44" value="ENABLE" style="edgeLabel;html=1;align=center;verticalAlign=middle;resizable=0;points=[];" vertex="1" connectable="0" parent="spQjrwH2cCTAyUQUguDn-43">
          <mxGeometry x="-0.2468" y="1" relative="1" as="geometry">
            <mxPoint x="-1" y="8" as="offset" />
          </mxGeometry>
        </mxCell>
        <mxCell id="spQjrwH2cCTAyUQUguDn-33" value="&lt;font style=&quot;font-size: 14px;&quot;&gt;&lt;b&gt;WEB 2.0 Domain&lt;/b&gt;&lt;/font&gt;" style="rounded=1;whiteSpace=wrap;html=1;gradientColor=light-dark(#924ddb, #ededed);fillColor=light-dark(#6865f0, #ededed);fontColor=#FFFFFF;shadow=1;strokeColor=light-dark(#934dda, #ededed);gradientDirection=west;" vertex="1" parent="1">
          <mxGeometry x="2432.5" y="1420" width="200" height="53" as="geometry" />
        </mxCell>
        <mxCell id="spQjrwH2cCTAyUQUguDn-34" value="" style="group;fillColor=none;strokeColor=none;" vertex="1" connectable="0" parent="1">
          <mxGeometry x="2417.5" y="1550" width="230" height="176" as="geometry" />
        </mxCell>
        <mxCell id="spQjrwH2cCTAyUQUguDn-35" value="" style="rounded=1;whiteSpace=wrap;html=1;fillColor=default;strokeColor=light-dark(#924ddb, #ededed);labelBorderColor=none;fontColor=#FFFFFF;shadow=1;gradientColor=none;" vertex="1" parent="spQjrwH2cCTAyUQUguDn-34">
          <mxGeometry width="229.99999999999997" height="176" as="geometry" />
        </mxCell>
        <mxCell id="spQjrwH2cCTAyUQUguDn-37" value="&lt;font style=&quot;font-size: 28px; color: light-dark(rgb(124, 89, 230), rgb(237, 237, 237));&quot;&gt;&lt;b&gt;DNSSEC&lt;/b&gt;&lt;/font&gt;" style="text;html=1;align=center;verticalAlign=middle;resizable=0;points=[];autosize=1;strokeColor=none;fillColor=none;" vertex="1" parent="spQjrwH2cCTAyUQUguDn-34">
          <mxGeometry x="45" y="20" width="140" height="50" as="geometry" />
        </mxCell>
        <mxCell id="spQjrwH2cCTAyUQUguDn-38" value="" style="shape=image;verticalLabelPosition=bottom;labelBackgroundColor=default;verticalAlign=top;aspect=fixed;imageAspect=0;image=https://d3.inc/wp-content/themes/d3-theme/assets/images/logo.png;" vertex="1" parent="spQjrwH2cCTAyUQUguDn-34">
          <mxGeometry x="43.5" y="100" width="143" height="39" as="geometry" />
        </mxCell>
        <mxCell id="spQjrwH2cCTAyUQUguDn-45" style="edgeStyle=orthogonalEdgeStyle;rounded=0;orthogonalLoop=1;jettySize=auto;html=1;entryX=1;entryY=0.5;entryDx=0;entryDy=0;" edge="1" parent="1" source="spQjrwH2cCTAyUQUguDn-39" target="spQjrwH2cCTAyUQUguDn-40">
          <mxGeometry relative="1" as="geometry" />
        </mxCell>
        <mxCell id="spQjrwH2cCTAyUQUguDn-39" value="&lt;font style=&quot;font-size: 14px;&quot;&gt;&lt;b&gt;DNS&lt;/b&gt;&lt;/font&gt;" style="rounded=1;whiteSpace=wrap;html=1;gradientColor=light-dark(#924ddb, #ededed);fillColor=light-dark(#6865f0, #ededed);fontColor=#FFFFFF;shadow=1;strokeColor=light-dark(#934dda, #ededed);gradientDirection=west;" vertex="1" parent="1">
          <mxGeometry x="2677.5" y="1420" width="200" height="53" as="geometry" />
        </mxCell>
        <mxCell id="spQjrwH2cCTAyUQUguDn-53" style="edgeStyle=orthogonalEdgeStyle;rounded=0;orthogonalLoop=1;jettySize=auto;html=1;entryX=0.5;entryY=0;entryDx=0;entryDy=0;" edge="1" parent="1" source="spQjrwH2cCTAyUQUguDn-40" target="spQjrwH2cCTAyUQUguDn-50">
          <mxGeometry relative="1" as="geometry" />
        </mxCell>
        <mxCell id="spQjrwH2cCTAyUQUguDn-54" value="SEARCH" style="edgeLabel;html=1;align=center;verticalAlign=middle;resizable=0;points=[];" vertex="1" connectable="0" parent="spQjrwH2cCTAyUQUguDn-53">
          <mxGeometry x="-0.2" y="2" relative="1" as="geometry">
            <mxPoint as="offset" />
          </mxGeometry>
        </mxCell>
        <mxCell id="spQjrwH2cCTAyUQUguDn-40" value="&lt;font style=&quot;font-size: 14px;&quot;&gt;&lt;b&gt;DNSSEC ENABLED DOMAIN&lt;/b&gt;&lt;/font&gt;" style="rounded=1;whiteSpace=wrap;html=1;gradientColor=light-dark(#924ddb, #ededed);fillColor=light-dark(#6865f0, #ededed);fontColor=#FFFFFF;shadow=1;strokeColor=light-dark(#934dda, #ededed);gradientDirection=west;" vertex="1" parent="1">
          <mxGeometry x="2380" y="1800" width="305" height="53" as="geometry" />
        </mxCell>
        <mxCell id="spQjrwH2cCTAyUQUguDn-47" style="edgeStyle=orthogonalEdgeStyle;rounded=0;orthogonalLoop=1;jettySize=auto;html=1;entryX=0;entryY=0.5;entryDx=0;entryDy=0;" edge="1" parent="1" source="spQjrwH2cCTAyUQUguDn-46" target="spQjrwH2cCTAyUQUguDn-40">
          <mxGeometry relative="1" as="geometry" />
        </mxCell>
        <mxCell id="spQjrwH2cCTAyUQUguDn-46" value="&lt;font style=&quot;font-size: 14px;&quot;&gt;&lt;b&gt;Add _d3s Text Record&lt;/b&gt;&lt;/font&gt;" style="rounded=1;whiteSpace=wrap;html=1;gradientColor=light-dark(#924ddb, #ededed);fillColor=light-dark(#6865f0, #ededed);fontColor=#FFFFFF;shadow=1;strokeColor=light-dark(#934dda, #ededed);gradientDirection=west;" vertex="1" parent="1">
          <mxGeometry x="2190" y="1420" width="200" height="53" as="geometry" />
        </mxCell>
        <mxCell id="spQjrwH2cCTAyUQUguDn-48" style="edgeStyle=orthogonalEdgeStyle;rounded=0;orthogonalLoop=1;jettySize=auto;html=1;entryX=0.5;entryY=0;entryDx=0;entryDy=0;" edge="1" parent="1" source="spQjrwH2cCTAyUQUguDn-35" target="spQjrwH2cCTAyUQUguDn-40">
          <mxGeometry relative="1" as="geometry" />
        </mxCell>
        <mxCell id="spQjrwH2cCTAyUQUguDn-49" value="" style="group;fillColor=none;strokeColor=none;" vertex="1" connectable="0" parent="1">
          <mxGeometry x="2418" y="1960" width="260" height="176" as="geometry" />
        </mxCell>
        <mxCell id="spQjrwH2cCTAyUQUguDn-50" value="" style="rounded=1;whiteSpace=wrap;html=1;fillColor=default;strokeColor=light-dark(#924ddb, #ededed);labelBorderColor=none;fontColor=#FFFFFF;shadow=1;gradientColor=none;" vertex="1" parent="spQjrwH2cCTAyUQUguDn-49">
          <mxGeometry width="229.99999999999997" height="176" as="geometry" />
        </mxCell>
        <mxCell id="spQjrwH2cCTAyUQUguDn-51" value="&lt;font style=&quot;color: light-dark(rgb(124, 89, 230), rgb(237, 237, 237)); font-size: 19px;&quot;&gt;&lt;b&gt;DOMAIN REGISTRY&lt;/b&gt;&lt;/font&gt;" style="text;html=1;align=center;verticalAlign=middle;resizable=0;points=[];autosize=1;strokeColor=none;fillColor=none;" vertex="1" parent="spQjrwH2cCTAyUQUguDn-49">
          <mxGeometry x="15" y="25" width="200" height="40" as="geometry" />
        </mxCell>
        <mxCell id="spQjrwH2cCTAyUQUguDn-52" value="" style="shape=image;verticalLabelPosition=bottom;labelBackgroundColor=default;verticalAlign=top;aspect=fixed;imageAspect=0;image=https://d3.inc/wp-content/themes/d3-theme/assets/images/logo.png;" vertex="1" parent="spQjrwH2cCTAyUQUguDn-49">
          <mxGeometry x="43.5" y="100" width="143" height="39" as="geometry" />
        </mxCell>
        <mxCell id="spQjrwH2cCTAyUQUguDn-56" value="" style="group;fillColor=none;" vertex="1" connectable="0" parent="1">
          <mxGeometry x="2070" y="1966" width="230" height="76" as="geometry" />
        </mxCell>
        <mxCell id="spQjrwH2cCTAyUQUguDn-57" value="&lt;span&gt;&lt;b style=&quot;&quot;&gt;&lt;font style=&quot;font-size: 14px; color: light-dark(rgb(124, 89, 230), rgb(255, 125, 125));&quot;&gt;ENS&lt;/font&gt;&lt;/b&gt;&lt;/span&gt;" style="rounded=1;whiteSpace=wrap;html=1;fillColor=#FFFFFF;strokeColor=light-dark(#a066de, #ededed);labelBorderColor=none;fontColor=#FFFFFF;shadow=1;" vertex="1" parent="spQjrwH2cCTAyUQUguDn-56">
          <mxGeometry width="229.99999999999997" height="76" as="geometry" />
        </mxCell>
        <mxCell id="spQjrwH2cCTAyUQUguDn-58" style="edgeStyle=orthogonalEdgeStyle;rounded=0;orthogonalLoop=1;jettySize=auto;html=1;entryX=0;entryY=0.25;entryDx=0;entryDy=0;" edge="1" parent="1" source="spQjrwH2cCTAyUQUguDn-57" target="spQjrwH2cCTAyUQUguDn-50">
          <mxGeometry relative="1" as="geometry" />
        </mxCell>
        <mxCell id="spQjrwH2cCTAyUQUguDn-61" style="edgeStyle=orthogonalEdgeStyle;rounded=0;orthogonalLoop=1;jettySize=auto;html=1;entryX=0;entryY=0.75;entryDx=0;entryDy=0;" edge="1" parent="1" target="spQjrwH2cCTAyUQUguDn-50">
          <mxGeometry relative="1" as="geometry">
            <mxPoint x="2300" y="2092" as="sourcePoint" />
          </mxGeometry>
        </mxCell>
        <mxCell id="spQjrwH2cCTAyUQUguDn-68" value="" style="group;fillColor=none;" vertex="1" connectable="0" parent="1">
          <mxGeometry x="2070" y="2053.5" width="230" height="76" as="geometry" />
        </mxCell>
        <mxCell id="spQjrwH2cCTAyUQUguDn-69" value="&lt;span&gt;&lt;b style=&quot;&quot;&gt;&lt;font style=&quot;font-size: 14px; color: light-dark(rgb(124, 89, 230), rgb(255, 125, 125));&quot;&gt;ANS&lt;/font&gt;&lt;/b&gt;&lt;/span&gt;" style="rounded=1;whiteSpace=wrap;html=1;fillColor=#FFFFFF;strokeColor=light-dark(#a066de, #ededed);labelBorderColor=none;fontColor=#FFFFFF;shadow=1;" vertex="1" parent="spQjrwH2cCTAyUQUguDn-68">
          <mxGeometry width="229.99999999999997" height="76" as="geometry" />
        </mxCell>
        <mxCell id="spQjrwH2cCTAyUQUguDn-70" value="" style="group;fillColor=none;" vertex="1" connectable="0" parent="1">
          <mxGeometry x="2770" y="1966" width="230" height="76" as="geometry" />
        </mxCell>
        <mxCell id="spQjrwH2cCTAyUQUguDn-71" value="&lt;span&gt;&lt;b style=&quot;&quot;&gt;&lt;font style=&quot;font-size: 14px; color: light-dark(rgb(124, 89, 230), rgb(255, 125, 125));&quot;&gt;CORE&lt;/font&gt;&lt;/b&gt;&lt;/span&gt;" style="rounded=1;whiteSpace=wrap;html=1;fillColor=#FFFFFF;strokeColor=light-dark(#a066de, #ededed);labelBorderColor=none;fontColor=#FFFFFF;shadow=1;" vertex="1" parent="spQjrwH2cCTAyUQUguDn-70">
          <mxGeometry width="229.99999999999997" height="76" as="geometry" />
        </mxCell>
        <mxCell id="spQjrwH2cCTAyUQUguDn-72" value="" style="group;fillColor=none;" vertex="1" connectable="0" parent="1">
          <mxGeometry x="2770" y="2053.5" width="230" height="76" as="geometry" />
        </mxCell>
        <mxCell id="spQjrwH2cCTAyUQUguDn-73" value="&lt;span&gt;&lt;b style=&quot;&quot;&gt;&lt;font style=&quot;font-size: 14px; color: light-dark(rgb(124, 89, 230), rgb(255, 125, 125));&quot;&gt;SHIB&lt;/font&gt;&lt;/b&gt;&lt;/span&gt;" style="rounded=1;whiteSpace=wrap;html=1;fillColor=#FFFFFF;strokeColor=light-dark(#a066de, #ededed);labelBorderColor=none;fontColor=#FFFFFF;shadow=1;" vertex="1" parent="spQjrwH2cCTAyUQUguDn-72">
          <mxGeometry width="229.99999999999997" height="76" as="geometry" />
        </mxCell>
        <mxCell id="spQjrwH2cCTAyUQUguDn-74" style="edgeStyle=orthogonalEdgeStyle;rounded=0;orthogonalLoop=1;jettySize=auto;html=1;entryX=1;entryY=0.25;entryDx=0;entryDy=0;" edge="1" parent="1" source="spQjrwH2cCTAyUQUguDn-71" target="spQjrwH2cCTAyUQUguDn-50">
          <mxGeometry relative="1" as="geometry" />
        </mxCell>
        <mxCell id="spQjrwH2cCTAyUQUguDn-75" style="edgeStyle=orthogonalEdgeStyle;rounded=0;orthogonalLoop=1;jettySize=auto;html=1;entryX=1;entryY=0.75;entryDx=0;entryDy=0;" edge="1" parent="1" source="spQjrwH2cCTAyUQUguDn-73" target="spQjrwH2cCTAyUQUguDn-50">
          <mxGeometry relative="1" as="geometry" />
        </mxCell>
        <mxCell id="spQjrwH2cCTAyUQUguDn-82" style="edgeStyle=orthogonalEdgeStyle;rounded=0;orthogonalLoop=1;jettySize=auto;html=1;entryX=0.5;entryY=0;entryDx=0;entryDy=0;" edge="1" parent="1" source="spQjrwH2cCTAyUQUguDn-76" target="spQjrwH2cCTAyUQUguDn-78">
          <mxGeometry relative="1" as="geometry" />
        </mxCell>
        <mxCell id="spQjrwH2cCTAyUQUguDn-76" value="&lt;font style=&quot;font-size: 14px;&quot;&gt;&lt;b&gt;Claim Domain on D3&lt;/b&gt;&lt;/font&gt;" style="rounded=1;whiteSpace=wrap;html=1;gradientColor=light-dark(#924ddb, #ededed);fillColor=light-dark(#6865f0, #ededed);fontColor=#FFFFFF;shadow=1;strokeColor=light-dark(#934dda, #ededed);gradientDirection=west;" vertex="1" parent="1">
          <mxGeometry x="2380" y="2207" width="305" height="53" as="geometry" />
        </mxCell>
        <mxCell id="spQjrwH2cCTAyUQUguDn-77" style="edgeStyle=orthogonalEdgeStyle;rounded=0;orthogonalLoop=1;jettySize=auto;html=1;entryX=0.5;entryY=0;entryDx=0;entryDy=0;" edge="1" parent="1" source="spQjrwH2cCTAyUQUguDn-50" target="spQjrwH2cCTAyUQUguDn-76">
          <mxGeometry relative="1" as="geometry" />
        </mxCell>
        <mxCell id="spQjrwH2cCTAyUQUguDn-81" style="edgeStyle=orthogonalEdgeStyle;rounded=0;orthogonalLoop=1;jettySize=auto;html=1;" edge="1" parent="1" source="spQjrwH2cCTAyUQUguDn-78">
          <mxGeometry relative="1" as="geometry">
            <mxPoint x="2890" y="2290" as="targetPoint" />
          </mxGeometry>
        </mxCell>
        <mxCell id="spQjrwH2cCTAyUQUguDn-84" style="edgeStyle=orthogonalEdgeStyle;rounded=0;orthogonalLoop=1;jettySize=auto;html=1;entryX=0.5;entryY=0;entryDx=0;entryDy=0;" edge="1" parent="1" source="spQjrwH2cCTAyUQUguDn-78" target="spQjrwH2cCTAyUQUguDn-83">
          <mxGeometry relative="1" as="geometry" />
        </mxCell>
        <mxCell id="spQjrwH2cCTAyUQUguDn-78" value="&lt;font style=&quot;font-size: 14px;&quot;&gt;&lt;b&gt;Ownership NFT Minted&lt;/b&gt;&lt;/font&gt;" style="rounded=1;whiteSpace=wrap;html=1;gradientColor=light-dark(#924ddb, #ededed);fillColor=light-dark(#6865f0, #ededed);fontColor=#FFFFFF;shadow=1;strokeColor=light-dark(#934dda, #ededed);gradientDirection=west;" vertex="1" parent="1">
          <mxGeometry x="2380" y="2340" width="305" height="53" as="geometry" />
        </mxCell>
        <mxCell id="spQjrwH2cCTAyUQUguDn-80" style="edgeStyle=orthogonalEdgeStyle;rounded=0;orthogonalLoop=1;jettySize=auto;html=1;" edge="1" parent="1" source="spQjrwH2cCTAyUQUguDn-79" target="spQjrwH2cCTAyUQUguDn-76">
          <mxGeometry relative="1" as="geometry" />
        </mxCell>
        <mxCell id="spQjrwH2cCTAyUQUguDn-79" value="Web 3.0 Wallet" style="shape=image;html=1;verticalAlign=top;verticalLabelPosition=bottom;labelBackgroundColor=#ffffff;imageAspect=0;aspect=fixed;image=https://cdn1.iconfinder.com/data/icons/unicons-line-vol-6/24/wallet-128.png" vertex="1" parent="1">
          <mxGeometry x="2856.5" y="2205" width="57" height="57" as="geometry" />
        </mxCell>
        <mxCell id="spQjrwH2cCTAyUQUguDn-83" value="&lt;font style=&quot;font-size: 14px;&quot;&gt;&lt;b&gt;( Optional ) D3 metadata Records update&lt;/b&gt;&lt;/font&gt;" style="rounded=1;whiteSpace=wrap;html=1;gradientColor=light-dark(#924ddb, #ededed);fillColor=light-dark(#6865f0, #ededed);fontColor=#FFFFFF;shadow=1;strokeColor=light-dark(#934dda, #ededed);gradientDirection=west;" vertex="1" parent="1">
          <mxGeometry x="2380" y="2450" width="305" height="53" as="geometry" />
        </mxCell>
        <mxCell id="spQjrwH2cCTAyUQUguDn-86" value="" style="group;fillColor=none;strokeColor=none;" vertex="1" connectable="0" parent="1">
          <mxGeometry x="3640" y="1642" width="365" height="236" as="geometry" />
        </mxCell>
        <mxCell id="spQjrwH2cCTAyUQUguDn-87" value="" style="rounded=1;whiteSpace=wrap;html=1;fillColor=default;strokeColor=light-dark(#924ddb, #ededed);labelBorderColor=none;fontColor=#FFFFFF;shadow=1;gradientColor=none;" vertex="1" parent="spQjrwH2cCTAyUQUguDn-86">
          <mxGeometry width="329.2156862745098" height="236" as="geometry" />
        </mxCell>
        <mxCell id="spQjrwH2cCTAyUQUguDn-88" value="&lt;font style=&quot;font-size: 28px; color: light-dark(rgb(124, 89, 230), rgb(237, 237, 237));&quot;&gt;&lt;b&gt;FRACTIONALIZING&lt;br&gt;&amp;nbsp;ENGINE&lt;/b&gt;&lt;/font&gt;" style="text;html=1;align=center;verticalAlign=middle;resizable=0;points=[];autosize=1;strokeColor=none;fillColor=none;" vertex="1" parent="spQjrwH2cCTAyUQUguDn-86">
          <mxGeometry x="24.6056862745098" y="19.99818181818182" width="280" height="80" as="geometry" />
        </mxCell>
        <mxCell id="spQjrwH2cCTAyUQUguDn-89" value="" style="shape=image;verticalLabelPosition=bottom;labelBackgroundColor=default;verticalAlign=top;aspect=fixed;imageAspect=0;image=https://d3.inc/wp-content/themes/d3-theme/assets/images/logo.png;" vertex="1" parent="spQjrwH2cCTAyUQUguDn-86">
          <mxGeometry x="62.26470588235295" y="134.0909090909091" width="191.75" height="52.29545454545455" as="geometry" />
        </mxCell>
        <mxCell id="spQjrwH2cCTAyUQUguDn-98" style="edgeStyle=orthogonalEdgeStyle;rounded=0;orthogonalLoop=1;jettySize=auto;html=1;entryX=0;entryY=0.5;entryDx=0;entryDy=0;" edge="1" parent="1" source="spQjrwH2cCTAyUQUguDn-90" target="spQjrwH2cCTAyUQUguDn-97">
          <mxGeometry relative="1" as="geometry">
            <Array as="points">
              <mxPoint x="3460" y="1539" />
            </Array>
          </mxGeometry>
        </mxCell>
        <mxCell id="spQjrwH2cCTAyUQUguDn-90" value="Web 3.0 Wallet" style="shape=image;html=1;verticalAlign=top;verticalLabelPosition=bottom;labelBackgroundColor=#ffffff;imageAspect=0;aspect=fixed;image=https://cdn1.iconfinder.com/data/icons/unicons-line-vol-6/24/wallet-128.png" vertex="1" parent="1">
          <mxGeometry x="3430" y="1400" width="57" height="57" as="geometry" />
        </mxCell>
        <mxCell id="spQjrwH2cCTAyUQUguDn-96" style="edgeStyle=orthogonalEdgeStyle;rounded=0;orthogonalLoop=1;jettySize=auto;html=1;entryX=1;entryY=0.5;entryDx=0;entryDy=0;" edge="1" parent="1" source="spQjrwH2cCTAyUQUguDn-91" target="spQjrwH2cCTAyUQUguDn-90">
          <mxGeometry relative="1" as="geometry" />
        </mxCell>
        <mxCell id="spQjrwH2cCTAyUQUguDn-91" value="&lt;font style=&quot;font-size: 14px;&quot;&gt;&lt;b&gt;DOMAIN NFT&lt;/b&gt;&lt;/font&gt;" style="rounded=1;whiteSpace=wrap;html=1;gradientColor=light-dark(#924ddb, #ededed);fillColor=light-dark(#6865f0, #ededed);fontColor=#FFFFFF;shadow=1;strokeColor=light-dark(#934dda, #ededed);gradientDirection=west;" vertex="1" parent="1">
          <mxGeometry x="3830" y="1402" width="305" height="53" as="geometry" />
        </mxCell>
        <mxCell id="spQjrwH2cCTAyUQUguDn-92" value="" style="group;fillColor=none;strokeColor=none;" vertex="1" connectable="0" parent="1">
          <mxGeometry x="4000" y="1642" width="365" height="236" as="geometry" />
        </mxCell>
        <mxCell id="spQjrwH2cCTAyUQUguDn-93" value="" style="rounded=1;whiteSpace=wrap;html=1;fillColor=default;strokeColor=light-dark(#924ddb, #ededed);labelBorderColor=none;fontColor=#FFFFFF;shadow=1;gradientColor=none;" vertex="1" parent="spQjrwH2cCTAyUQUguDn-92">
          <mxGeometry width="329.2156862745098" height="236" as="geometry" />
        </mxCell>
        <mxCell id="spQjrwH2cCTAyUQUguDn-94" value="&lt;font color=&quot;#7c59e6&quot;&gt;&lt;span style=&quot;font-size: 28px;&quot;&gt;&lt;b&gt;PRICING MODULE&lt;/b&gt;&lt;/span&gt;&lt;/font&gt;" style="text;html=1;align=center;verticalAlign=middle;resizable=0;points=[];autosize=1;strokeColor=none;fillColor=none;" vertex="1" parent="spQjrwH2cCTAyUQUguDn-92">
          <mxGeometry x="29.6056862745098" y="34.99818181818182" width="270" height="50" as="geometry" />
        </mxCell>
        <mxCell id="spQjrwH2cCTAyUQUguDn-95" value="" style="shape=image;verticalLabelPosition=bottom;labelBackgroundColor=default;verticalAlign=top;aspect=fixed;imageAspect=0;image=https://d3.inc/wp-content/themes/d3-theme/assets/images/logo.png;" vertex="1" parent="spQjrwH2cCTAyUQUguDn-92">
          <mxGeometry x="62.26470588235295" y="134.0909090909091" width="191.75" height="52.29545454545455" as="geometry" />
        </mxCell>
        <mxCell id="spQjrwH2cCTAyUQUguDn-100" style="edgeStyle=orthogonalEdgeStyle;rounded=0;orthogonalLoop=1;jettySize=auto;html=1;entryX=0.5;entryY=0;entryDx=0;entryDy=0;" edge="1" parent="1" source="spQjrwH2cCTAyUQUguDn-97" target="spQjrwH2cCTAyUQUguDn-87">
          <mxGeometry relative="1" as="geometry" />
        </mxCell>
        <mxCell id="spQjrwH2cCTAyUQUguDn-101" style="edgeStyle=orthogonalEdgeStyle;rounded=0;orthogonalLoop=1;jettySize=auto;html=1;" edge="1" parent="1" source="spQjrwH2cCTAyUQUguDn-97" target="spQjrwH2cCTAyUQUguDn-93">
          <mxGeometry relative="1" as="geometry" />
        </mxCell>
        <mxCell id="spQjrwH2cCTAyUQUguDn-97" value="&lt;font style=&quot;font-size: 14px;&quot;&gt;&lt;b&gt;INITIATE FRACTION SHARES&lt;/b&gt;&lt;/font&gt;" style="rounded=1;whiteSpace=wrap;html=1;gradientColor=light-dark(#924ddb, #ededed);fillColor=light-dark(#6865f0, #ededed);fontColor=#FFFFFF;shadow=1;strokeColor=light-dark(#934dda, #ededed);gradientDirection=west;" vertex="1" parent="1">
          <mxGeometry x="3830" y="1512" width="305" height="53" as="geometry" />
        </mxCell>
        <mxCell id="spQjrwH2cCTAyUQUguDn-109" style="edgeStyle=orthogonalEdgeStyle;rounded=0;orthogonalLoop=1;jettySize=auto;html=1;entryX=0.5;entryY=0;entryDx=0;entryDy=0;" edge="1" parent="1" source="spQjrwH2cCTAyUQUguDn-99" target="spQjrwH2cCTAyUQUguDn-105">
          <mxGeometry relative="1" as="geometry" />
        </mxCell>
        <mxCell id="spQjrwH2cCTAyUQUguDn-99" value="&lt;font style=&quot;font-size: 14px;&quot;&gt;&lt;b&gt;ERC1155 SFT&lt;/b&gt;&lt;/font&gt;" style="rounded=1;whiteSpace=wrap;html=1;gradientColor=light-dark(#924ddb, #ededed);fillColor=light-dark(#6865f0, #ededed);fontColor=#FFFFFF;shadow=1;strokeColor=light-dark(#934dda, #ededed);gradientDirection=west;" vertex="1" parent="1">
          <mxGeometry x="3830" y="1960.5" width="305" height="53" as="geometry" />
        </mxCell>
        <mxCell id="spQjrwH2cCTAyUQUguDn-102" style="edgeStyle=orthogonalEdgeStyle;rounded=0;orthogonalLoop=1;jettySize=auto;html=1;" edge="1" parent="1" source="spQjrwH2cCTAyUQUguDn-93" target="spQjrwH2cCTAyUQUguDn-99">
          <mxGeometry relative="1" as="geometry" />
        </mxCell>
        <mxCell id="spQjrwH2cCTAyUQUguDn-103" style="edgeStyle=orthogonalEdgeStyle;rounded=0;orthogonalLoop=1;jettySize=auto;html=1;" edge="1" parent="1" source="spQjrwH2cCTAyUQUguDn-87" target="spQjrwH2cCTAyUQUguDn-99">
          <mxGeometry relative="1" as="geometry" />
        </mxCell>
        <mxCell id="spQjrwH2cCTAyUQUguDn-104" value="" style="group;fillColor=none;strokeColor=none;" vertex="1" connectable="0" parent="1">
          <mxGeometry x="3867.5" y="2073.5" width="230" height="176" as="geometry" />
        </mxCell>
        <mxCell id="spQjrwH2cCTAyUQUguDn-105" value="" style="rounded=1;whiteSpace=wrap;html=1;fillColor=default;strokeColor=light-dark(#924ddb, #ededed);labelBorderColor=none;fontColor=#FFFFFF;shadow=1;gradientColor=none;" vertex="1" parent="spQjrwH2cCTAyUQUguDn-104">
          <mxGeometry width="229.99999999999997" height="176" as="geometry" />
        </mxCell>
        <mxCell id="spQjrwH2cCTAyUQUguDn-106" value="&lt;font style=&quot;font-size: 28px; color: light-dark(rgb(124, 89, 230), rgb(237, 237, 237));&quot;&gt;&lt;b&gt;IDO&lt;/b&gt;&lt;/font&gt;" style="text;html=1;align=center;verticalAlign=middle;resizable=0;points=[];autosize=1;strokeColor=none;fillColor=none;" vertex="1" parent="spQjrwH2cCTAyUQUguDn-104">
          <mxGeometry x="80" y="20" width="70" height="50" as="geometry" />
        </mxCell>
        <mxCell id="spQjrwH2cCTAyUQUguDn-107" value="" style="shape=image;verticalLabelPosition=bottom;labelBackgroundColor=default;verticalAlign=top;aspect=fixed;imageAspect=0;image=https://d3.inc/wp-content/themes/d3-theme/assets/images/logo.png;" vertex="1" parent="spQjrwH2cCTAyUQUguDn-104">
          <mxGeometry x="43.5" y="100" width="143" height="39" as="geometry" />
        </mxCell>
        <mxCell id="spQjrwH2cCTAyUQUguDn-110" value="&lt;font style=&quot;font-size: 14px;&quot;&gt;&lt;b&gt;Distribution&lt;/b&gt;&lt;/font&gt;" style="rounded=1;whiteSpace=wrap;html=1;gradientColor=light-dark(#924ddb, #ededed);fillColor=light-dark(#6865f0, #ededed);fontColor=#FFFFFF;shadow=1;strokeColor=light-dark(#934dda, #ededed);gradientDirection=west;" vertex="1" parent="1">
          <mxGeometry x="3830" y="2305" width="305" height="53" as="geometry" />
        </mxCell>
        <mxCell id="spQjrwH2cCTAyUQUguDn-111" style="edgeStyle=orthogonalEdgeStyle;rounded=0;orthogonalLoop=1;jettySize=auto;html=1;entryX=0.5;entryY=0;entryDx=0;entryDy=0;" edge="1" parent="1" target="spQjrwH2cCTAyUQUguDn-110">
          <mxGeometry relative="1" as="geometry">
            <mxPoint x="3982.5" y="2225.5" as="sourcePoint" />
          </mxGeometry>
        </mxCell>
        <mxCell id="spQjrwH2cCTAyUQUguDn-113" value="&lt;h1 style=&quot;margin-top: 0px;&quot;&gt;&lt;font style=&quot;font-size: 40px;&quot;&gt;DOMAIN FRACTIONALIZATION&lt;/font&gt;&lt;/h1&gt;" style="text;html=1;whiteSpace=wrap;overflow=hidden;rounded=0;fontFamily=Courier New;fontStyle=1" vertex="1" parent="1">
          <mxGeometry x="3700" y="1260" width="613.75" height="60" as="geometry" />
        </mxCell>
        <mxCell id="spQjrwH2cCTAyUQUguDn-114" value="" style="group;fillColor=none;" vertex="1" connectable="0" parent="1">
          <mxGeometry x="4400" y="1722" width="230" height="76" as="geometry" />
        </mxCell>
        <mxCell id="spQjrwH2cCTAyUQUguDn-115" value="&lt;span&gt;&lt;b style=&quot;&quot;&gt;&lt;font style=&quot;font-size: 14px; color: light-dark(rgb(124, 89, 230), rgb(255, 125, 125));&quot;&gt;D3 LOOKUP SERVICE&lt;/font&gt;&lt;/b&gt;&lt;/span&gt;" style="rounded=1;whiteSpace=wrap;html=1;fillColor=#FFFFFF;strokeColor=light-dark(#a066de, #ededed);labelBorderColor=none;fontColor=#FFFFFF;shadow=1;" vertex="1" parent="spQjrwH2cCTAyUQUguDn-114">
          <mxGeometry width="229.99999999999997" height="76" as="geometry" />
        </mxCell>
        <mxCell id="spQjrwH2cCTAyUQUguDn-116" style="edgeStyle=orthogonalEdgeStyle;rounded=0;orthogonalLoop=1;jettySize=auto;html=1;entryX=1;entryY=0.5;entryDx=0;entryDy=0;" edge="1" parent="1" source="spQjrwH2cCTAyUQUguDn-115" target="spQjrwH2cCTAyUQUguDn-93">
          <mxGeometry relative="1" as="geometry" />
        </mxCell>
      </root>
    </mxGraphModel>
  </diagram>
</mxfile>
